<svg xmlns="http://www.w3.org/2000/svg" width="1500" height="1100" viewBox="0 0 150 110" role="img" aria-labelledby="title desc">
  <title id="title">New Captures NC monogram submark</title>
  <desc id="desc">NC monogram reconstructed from the exact N and C letterforms in the supplied New Captures Photography logo.</desc>
  <g fill="#171717" fill-rule="evenodd">
    <path transform="translate(11 10)" d="M 7.673 9.553 C 13.997 12.323, 14 12.338, 14 45.598 C 14 62.181, 13.709 77.206, 13.353 78.985 C 12.883 81.337, 11.859 82.589, 9.603 83.571 C 6.666 84.849, 6.928 84.920, 14.500 84.893 C 20.987 84.870, 22.074 84.659, 20.247 83.778 C 16.470 81.957, 15.952 77.071, 16.235 45.931 L 16.500 16.689 20.279 22.094 C 30.577 36.826, 66.574 85.949, 67.089 85.973 C 67.412 85.988, 67.960 69.877, 68.305 50.171 C 68.649 30.465, 69.239 13.540, 69.616 12.560 C 69.992 11.579, 71.694 10.170, 73.400 9.428 C 76.305 8.163, 75.935 8.076, 67.500 8.041 L 58.500 8.003 62 9.752 L 65.500 11.500 65.765 41.844 L 66.030 72.189 63.704 69.344 C 62.425 67.780, 51.805 53.337, 40.105 37.250 L 18.831 8 11.666 8.082 C 4.666 8.161, 4.573 8.195, 7.673 9.553"/>
    <path transform="translate(49 9)" d="M 46 5.643 C 44.625 5.918, 39.865 7.887, 35.423 10.017 C 18.235 18.258, 5 38.492, 5 56.529 C 5 78.571, 26.396 92.784, 51.988 87.742 C 56.528 86.847, 62.776 84.864, 65.872 83.335 C 72.106 80.256, 87.623 65.644, 90.386 60.250 C 92.354 56.408, 90.980 55.801, 88.941 59.611 C 86.042 65.028, 72.446 76.523, 63.860 80.817 C 42.720 91.390, 22.059 87.384, 14.414 71.229 C 7.947 57.565, 12.720 36.126, 25.291 22.372 C 34.730 12.044, 45.077 6.996, 56.788 7.006 C 68.832 7.016, 75.928 10.404, 79.750 17.970 C 82.422 23.259, 82.739 31.297, 80.487 36.686 C 78.516 41.402, 79.545 42.291, 82.587 38.500 C 87.109 32.865, 88.426 28.932, 88.241 21.617 C 88.075 15.020, 87.232 12.083, 86.275 14.765 C 85.963 15.638, 84.844 15.202, 82.662 13.357 C 76.446 8.104, 69.423 5.809, 58.500 5.460 C 53 5.285, 47.375 5.367, 46 5.643"/>
  </g>
</svg>
