<svg xmlns="http://www.w3.org/2000/svg" viewBox="0 0 2330 949" preserveAspectRatio="xMidYMid meet"><path d="M 1884,826 L 1881,831 L 1905,872 L 1905,899 L 1907,902 L 1913,902 L 1916,870 L 1939,829 L 1936,826 L 1930,827 L 1910,858 L 1892,829 Z M 1745,827 L 1744,899 L 1749,903 L 1755,900 L 1755,871 L 1757,868 L 1789,868 L 1792,874 L 1792,900 L 1795,903 L 1800,902 L 1802,897 L 1800,827 L 1795,826 L 1791,830 L 1792,850 L 1789,858 L 1758,858 L 1755,855 L 1755,830 L 1752,826 Z M 1652,828 L 1646,826 L 1618,826 L 1615,828 L 1614,899 L 1617,902 L 1621,902 L 1624,898 L 1624,882 L 1627,873 L 1649,872 L 1657,867 L 1663,858 L 1663,842 L 1660,835 Z M 1625,837 L 1641,835 L 1648,838 L 1654,846 L 1651,859 L 1638,864 L 1626,863 L 1624,861 Z M 1500,826 L 1470,899 L 1474,903 L 1480,901 L 1489,882 L 1517,882 L 1525,898 L 1529,902 L 1534,902 L 1536,898 L 1509,830 L 1505,826 Z M 1503,845 L 1514,869 L 1513,872 L 1502,873 L 1492,870 Z M 1347,826 L 1344,829 L 1343,841 L 1344,900 L 1349,903 L 1353,901 L 1354,874 L 1358,871 L 1365,871 L 1382,896 L 1390,903 L 1395,902 L 1396,897 L 1379,871 L 1393,855 L 1391,838 L 1377,827 Z M 1354,837 L 1369,835 L 1377,838 L 1382,844 L 1381,855 L 1372,862 L 1356,862 Z M 1071,826 L 1060,831 L 1047,844 L 1042,860 L 1043,874 L 1047,885 L 1058,897 L 1072,903 L 1088,903 L 1103,896 L 1111,888 L 1117,874 L 1117,854 L 1111,841 L 1102,832 L 1091,826 Z M 1075,835 L 1086,835 L 1093,838 L 1101,845 L 1107,857 L 1107,871 L 1103,881 L 1096,889 L 1084,894 L 1075,894 L 1064,889 L 1054,872 L 1054,858 L 1058,847 L 1063,841 Z M 917,826 L 914,828 L 916,835 L 937,837 L 937,899 L 945,903 L 948,900 L 948,837 L 969,835 L 971,830 L 968,826 Z M 628,827 L 627,899 L 630,902 L 637,900 L 638,870 L 640,868 L 672,868 L 675,871 L 675,899 L 677,902 L 683,902 L 685,900 L 686,868 L 685,829 L 682,826 L 675,828 L 675,855 L 672,858 L 641,858 L 638,855 L 637,829 L 634,826 Z M 534,828 L 500,826 L 497,829 L 497,898 L 502,903 L 507,899 L 507,875 L 531,872 L 538,868 L 546,858 L 547,843 L 541,833 Z M 507,837 L 523,835 L 530,838 L 536,845 L 534,858 L 526,863 L 509,863 L 507,861 Z M 1223,826 L 1208,834 L 1197,849 L 1195,857 L 1197,879 L 1203,890 L 1216,900 L 1225,903 L 1243,903 L 1257,897 L 1260,893 L 1259,864 L 1255,862 L 1235,863 L 1233,866 L 1235,872 L 1248,872 L 1251,875 L 1251,887 L 1243,893 L 1228,894 L 1217,889 L 1210,882 L 1205,870 L 1205,862 L 1210,847 L 1218,839 L 1227,835 L 1238,835 L 1254,843 L 1258,835 L 1242,826 Z M 794,826 L 778,835 L 768,852 L 768,875 L 773,887 L 785,898 L 797,903 L 813,903 L 826,897 L 837,886 L 842,871 L 842,858 L 836,842 L 825,831 L 808,825 Z M 795,836 L 813,836 L 821,841 L 830,853 L 832,862 L 830,875 L 826,883 L 813,893 L 795,893 L 782,882 L 779,876 L 779,853 L 783,845 Z M 1608,347 L 1607,351 L 1613,366 L 1613,555 L 1606,572 L 1609,574 L 1647,574 L 1649,572 L 1641,561 L 1641,469 L 1650,467 L 1659,468 L 1725,569 L 1732,573 L 1750,576 L 1765,575 L 1767,570 L 1748,556 L 1692,467 L 1694,463 L 1719,453 L 1737,432 L 1742,417 L 1743,400 L 1740,384 L 1733,371 L 1713,354 L 1686,346 Z M 1643,357 L 1686,359 L 1697,365 L 1711,384 L 1714,396 L 1714,416 L 1710,431 L 1703,442 L 1687,454 L 1666,458 L 1641,456 L 1641,359 Z M 1286,347 L 1284,351 L 1291,365 L 1290,501 L 1292,520 L 1299,540 L 1318,562 L 1349,577 L 1387,578 L 1417,567 L 1439,545 L 1450,516 L 1451,365 L 1454,348 L 1435,347 L 1432,349 L 1439,363 L 1439,505 L 1433,530 L 1425,543 L 1409,557 L 1393,563 L 1376,564 L 1364,563 L 1343,554 L 1332,543 L 1326,532 L 1319,501 L 1320,357 L 1323,349 L 1316,346 Z M 1004,346 L 999,351 L 998,369 L 1000,371 L 1018,358 L 1053,357 L 1055,360 L 1055,557 L 1048,572 L 1050,574 L 1091,574 L 1092,570 L 1084,559 L 1083,360 L 1086,357 L 1118,357 L 1127,360 L 1138,372 L 1142,372 L 1141,352 L 1136,346 Z M 827,348 L 743,346 L 738,349 L 744,366 L 743,559 L 736,571 L 738,574 L 778,574 L 780,572 L 774,562 L 774,473 L 819,472 L 841,465 L 856,456 L 872,434 L 876,422 L 877,403 L 870,378 L 853,359 Z M 775,357 L 809,357 L 821,361 L 836,373 L 844,387 L 847,404 L 844,430 L 835,446 L 817,459 L 805,462 L 776,462 L 773,459 L 773,359 Z M 2016,346 L 1894,346 L 1891,349 L 1896,358 L 1897,558 L 1890,570 L 1891,574 L 2021,574 L 2023,572 L 2028,546 L 2024,546 L 2015,556 L 1994,563 L 1929,563 L 1926,560 L 1926,465 L 1928,463 L 1978,463 L 1989,467 L 1995,477 L 2001,477 L 2000,438 L 1996,438 L 1990,447 L 1980,451 L 1937,452 L 1926,449 L 1926,360 L 1929,357 L 1990,357 L 2007,361 L 2015,370 L 2020,371 L 2020,352 Z M 493,344 L 486,355 L 406,553 L 391,571 L 394,574 L 423,572 L 418,563 L 419,556 L 435,514 L 443,500 L 528,499 L 535,510 L 554,560 L 549,573 L 595,574 L 596,570 L 587,563 L 503,358 L 497,345 Z M 485,393 L 492,404 L 523,485 L 450,487 L 448,482 Z M 2214,342 L 2192,350 L 2173,367 L 2162,395 L 2164,420 L 2171,434 L 2188,453 L 2239,488 L 2251,500 L 2258,515 L 2259,535 L 2252,552 L 2238,563 L 2230,566 L 2207,566 L 2186,556 L 2175,544 L 2169,529 L 2164,526 L 2162,529 L 2162,559 L 2165,564 L 2194,576 L 2228,578 L 2253,570 L 2269,557 L 2281,536 L 2284,508 L 2279,490 L 2268,473 L 2207,428 L 2195,416 L 2189,405 L 2188,380 L 2194,369 L 2210,356 L 2221,354 L 2239,356 L 2252,364 L 2265,381 L 2271,381 L 2272,361 L 2268,355 L 2247,345 Z M 141,344 L 115,352 L 96,363 L 71,386 L 61,400 L 52,419 L 45,448 L 45,473 L 51,502 L 70,535 L 86,551 L 117,570 L 141,577 L 160,579 L 192,577 L 208,573 L 234,561 L 256,544 L 256,520 L 250,520 L 243,531 L 224,549 L 195,563 L 160,566 L 132,557 L 114,545 L 101,532 L 85,505 L 77,472 L 81,427 L 87,410 L 100,388 L 121,369 L 145,357 L 181,355 L 208,363 L 227,376 L 250,404 L 255,402 L 256,376 L 231,357 L 203,346 L 185,342 Z M 1093,47 L 1091,50 L 1096,57 L 1098,68 L 1099,250 L 1096,264 L 1090,269 L 1090,273 L 1094,275 L 1223,273 L 1228,252 L 1226,246 L 1223,246 L 1215,256 L 1199,262 L 1128,263 L 1126,261 L 1127,165 L 1129,163 L 1178,163 L 1187,166 L 1193,175 L 1198,177 L 1200,175 L 1201,144 L 1200,138 L 1197,137 L 1188,148 L 1181,151 L 1128,151 L 1126,149 L 1126,59 L 1129,57 L 1196,58 L 1209,63 L 1216,72 L 1219,72 L 1221,64 L 1218,48 L 1215,46 Z M 742,47 L 740,51 L 748,63 L 748,256 L 741,272 L 766,274 L 769,271 L 761,257 L 761,92 L 763,91 L 925,277 L 930,275 L 931,50 L 927,47 L 912,49 L 917,59 L 916,222 L 767,50 L 760,46 Z M 1364,47 L 1362,51 L 1373,65 L 1455,275 L 1461,277 L 1464,274 L 1516,139 L 1569,274 L 1572,277 L 1577,276 L 1655,69 L 1668,51 L 1667,47 L 1653,46 L 1639,49 L 1643,58 L 1640,72 L 1582,225 L 1576,215 L 1519,65 L 1523,47 L 1483,46 L 1477,49 L 1487,61 L 1509,121 L 1467,225 L 1403,64 L 1405,47 L 1401,45 Z" fill="#292522" fill-rule="evenodd"/></svg>